<?xml version="1.0" standalone="no"?>
<!DOCTYPE svg PUBLIC "-//W3C//DTD SVG 20010904//EN"
 "http://www.w3.org/TR/2001/REC-SVG-20010904/DTD/svg10.dtd">
<svg version="1.0" xmlns="http://www.w3.org/2000/svg"
 width="138.000000pt" height="41.000000pt" viewBox="0 0 138.000000 41.000000"
 preserveAspectRatio="xMidYMid meet">
<g transform="translate(0.000000,41.000000) scale(0.100000,-0.100000)"
fill="#000000" stroke="none">
<path d="M240 399 c0 -5 5 -7 12 -3 8 5 9 2 5 -10 -4 -9 -3 -15 1 -12 5 3 16
-4 25 -15 9 -10 14 -19 11 -19 -4 0 -1 -6 5 -14 8 -10 9 -16 1 -21 -5 -3 -10
-1 -10 4 0 6 -5 11 -11 11 -5 0 -7 -4 -4 -10 4 -6 -2 -7 -17 -1 -58 21 -104
-21 -76 -72 10 -20 10 -21 -5 -8 -18 15 -24 2 -7 -15 8 -8 8 -19 0 -38 -7 -19
-7 -25 0 -21 6 4 17 2 23 -4 15 -12 58 -11 51 1 -3 4 -1 8 5 8 5 0 13 -5 17
-11 3 -6 15 -8 26 -6 11 3 31 1 45 -4 15 -6 31 -5 43 1 15 8 17 6 13 -10 -3
-11 -8 -20 -12 -20 -10 0 -11 -99 -1 -105 6 -4 10 13 10 42 0 31 7 60 20 81
17 28 19 37 8 49 -11 14 -9 15 20 9 21 -5 32 -4 32 3 0 6 -6 11 -14 11 -8 0
-22 8 -31 17 -16 16 -16 17 1 30 24 18 49 16 65 -3 12 -15 10 -16 -19 -10 -19
5 -32 4 -32 -2 0 -15 53 -22 68 -9 8 6 12 23 10 39 -4 21 0 28 12 28 13 0 16
-6 12 -27 -5 -25 -4 -27 12 -14 14 12 21 12 42 1 19 -11 27 -11 36 -2 19 19
56 14 68 -8 6 -11 9 -33 8 -49 -2 -28 -4 -30 -43 -28 -33 2 -41 6 -43 25 -2
15 2 22 12 22 9 0 16 4 16 10 0 5 7 7 15 4 8 -4 15 -1 15 6 0 8 -10 9 -32 5
-39 -9 -47 -18 -40 -51 3 -17 0 -24 -12 -24 -12 0 -16 9 -16 36 0 28 -3 35
-17 32 -12 -2 -19 -14 -21 -36 -2 -18 -9 -32 -16 -32 -9 0 -12 9 -8 25 2 14 0
25 -6 25 -23 0 -18 -48 9 -81 16 -19 29 -29 29 -22 0 6 -5 15 -12 19 -8 5 -5
11 7 20 10 8 23 10 29 5 20 -15 48 -22 40 -9 -5 8 -2 9 12 3 10 -4 29 -10 42
-12 12 -3 22 -9 22 -14 0 -5 5 -9 11 -9 8 0 8 4 0 14 -9 11 -8 15 4 20 9 3 13
2 10 -4 -4 -6 1 -7 11 -3 14 5 16 3 11 -11 -4 -10 -1 -19 6 -22 8 -3 12 -17
10 -37 -3 -26 -1 -28 6 -12 8 17 10 15 12 -15 1 -23 3 -28 6 -13 6 31 -15 101
-38 124 -13 13 -19 33 -19 63 l0 45 43 -2 42 -2 3 -47 c2 -34 -1 -48 -10 -48
-8 0 -13 13 -13 37 0 27 -4 38 -15 38 -23 0 -25 -68 -3 -102 10 -15 21 -52 24
-83 l6 -55 2 53 c1 39 4 51 14 46 6 -4 2 3 -10 15 -26 25 -30 43 -8 35 8 -4
12 -10 9 -15 -3 -5 3 -6 12 -2 12 4 14 8 5 11 -9 3 -8 9 5 23 19 21 34 25 34
9 0 -5 -7 -10 -16 -10 -8 0 -12 -5 -9 -10 4 -7 13 -7 26 0 15 8 21 7 25 -4 4
-12 11 -13 32 -5 18 7 28 6 34 -3 7 -12 12 -4 9 16 -1 5 6 5 16 2 32 -13 83
-16 83 -6 0 15 30 12 36 -4 5 -12 11 -13 30 -4 13 6 24 18 24 26 0 12 3 12 15
2 11 -9 19 -10 26 -3 8 8 7 13 -2 18 -8 6 -10 4 -4 -5 5 -8 3 -11 -6 -8 -18 6
-19 36 -2 70 15 31 17 50 3 28 -7 -12 -11 -10 -18 9 -7 20 -10 21 -15 8 -4
-10 -13 -14 -22 -11 -8 3 -15 1 -15 -6 0 -6 4 -8 10 -5 6 4 7 -1 3 -11 -6 -16
-8 -15 -17 5 -7 17 -15 21 -32 17 -13 -4 -26 -2 -29 4 -4 7 -13 6 -26 -1 -16
-8 -26 -5 -55 20 -19 17 -38 31 -42 31 -4 0 1 -7 11 -14 17 -13 17 -14 0 -21
-10 -5 -20 -9 -23 -9 -12 -3 -70 -51 -70 -58 0 -5 4 -7 8 -4 5 3 9 -1 9 -9 0
-8 -6 -16 -12 -19 -8 -3 -12 5 -12 20 0 14 -8 33 -17 43 -18 20 -56 34 -56 22
0 -9 -95 -5 -111 5 -7 4 -10 3 -6 -3 4 -6 -2 -13 -13 -16 -11 -3 -23 -1 -26 4
-3 5 -14 9 -25 9 -10 0 -19 5 -19 10 0 6 -7 10 -16 10 -8 0 -13 4 -10 9 3 5
-1 11 -9 15 -8 3 -17 1 -20 -4 -3 -4 -1 -10 5 -12 6 -2 1 -9 -11 -16 -12 -8
-18 -9 -15 -3 4 6 -6 4 -21 -4 -32 -17 -63 -20 -63 -6 0 5 6 12 13 15 6 3 3 5
-8 3 -12 -1 -24 6 -30 17 -5 11 -17 22 -25 24 -8 3 2 -16 23 -41 62 -75 18
-44 -53 38 -63 73 -80 86 -80 64z m95 -98 c14 -27 13 -28 -11 -23 -25 5 -31
16 -14 27 8 5 7 12 -2 23 -10 12 -10 14 0 8 6 -4 19 -20 27 -35z m-41 -33 c8
-13 7 -23 -2 -39 -11 -17 -11 -25 3 -45 14 -22 14 -24 -3 -24 -10 0 -24 11
-30 25 -6 14 -16 25 -22 25 -5 0 -10 -11 -10 -25 0 -16 -6 -25 -15 -25 -12 0
-15 14 -15 66 l0 65 41 -3 c27 -2 46 -9 53 -20z m666 -43 l0 -65 -35 0 c-40 0
-60 27 -51 66 7 25 45 42 67 29 8 -5 9 -1 4 14 -4 12 -2 21 4 21 7 0 11 -26
11 -65z m-564 10 c15 -23 15 -27 0 -50 -30 -45 -86 -28 -86 27 0 49 59 65 86
23z m664 6 c15 -29 14 -30 -31 -33 -38 -3 -39 -4 -25 -23 13 -18 17 -18 36 -7
19 11 21 11 18 0 -6 -18 -46 -22 -64 -8 -17 15 -19 61 -2 78 18 18 56 14 68
-7z m30 7 c1 -7 7 -26 14 -43 l13 -30 13 43 c7 23 17 42 22 42 11 0 11 -2 -12
-54 -10 -25 -23 -46 -28 -46 -5 0 -14 17 -21 38 -7 20 -15 43 -17 50 -3 6 -1
12 5 12 6 0 11 -6 11 -12z"/>
<path d="M230 251 c0 -15 6 -21 21 -21 14 0 19 5 17 17 -5 26 -38 29 -38 4z"/>
<path d="M902 241 c-19 -12 -11 -65 11 -69 21 -4 39 36 25 61 -10 19 -17 21
-36 8z"/>
<path d="M344 226 c-8 -22 3 -49 19 -43 6 2 12 14 12 27 0 27 -22 39 -31 16z"/>
<path d="M1000 235 c-11 -13 -8 -15 19 -15 33 0 42 14 15 24 -21 8 -20 8 -34
-9z"/>
<path d="M297 385 c10 -13 24 -25 32 -25 8 0 4 9 -10 25 -31 32 -45 32 -22 0z"/>
<path d="M780 320 c-9 -6 -10 -10 -3 -10 6 0 15 5 18 10 8 12 4 12 -15 0z"/>
<path d="M1150 320 c-8 -5 -10 -10 -5 -10 6 0 17 5 25 10 8 5 11 10 5 10 -5 0
-17 -5 -25 -10z"/>
<path d="M719 303 c-13 -16 -12 -17 3 -5 9 8 23 10 29 6 8 -4 9 -3 5 4 -10 17
-21 15 -37 -5z"/>
<path d="M895 310 c3 -5 8 -10 11 -10 2 0 4 5 4 10 0 6 -5 10 -11 10 -5 0 -7
-4 -4 -10z"/>
<path d="M1104 308 c-4 -7 -4 -10 1 -6 4 4 15 2 24 -5 14 -11 14 -10 2 6 -16
20 -18 21 -27 5z"/>
<path d="M578 303 c6 -2 18 -2 25 0 6 3 1 5 -13 5 -14 0 -19 -2 -12 -5z"/>
<path d="M654 195 c-17 -13 -17 -14 -2 -15 9 0 20 5 23 11 11 17 0 20 -21 4z"/>
<path d="M425 130 c-21 -40 -31 -115 -16 -124 7 -5 11 4 11 24 0 39 17 73 32
64 7 -5 8 -2 2 7 -15 25 -13 39 6 39 10 0 22 -4 25 -10 3 -5 0 -8 -7 -7 -7 2
-10 2 -5 0 4 -3 5 -9 2 -14 -4 -5 2 -6 11 -2 13 5 15 3 9 -7 -5 -8 -4 -11 3
-6 13 8 34 -28 30 -52 -4 -25 10 -42 35 -42 20 0 20 1 3 13 -36 26 4 84 42 61
24 -16 27 -45 6 -62 -18 -13 -17 -13 6 -10 50 6 30 98 -22 98 -10 0 -18 5 -18
10 0 6 -5 10 -11 10 -5 0 -7 -4 -4 -10 3 -5 1 -10 -5 -10 -6 0 -9 -4 -5 -9 3
-5 2 -12 -2 -14 -5 -3 -24 15 -43 39 -41 52 -64 55 -85 14z m15 -24 c0 -3 -4
-8 -10 -11 -5 -3 -10 -1 -10 4 0 6 5 11 10 11 6 0 10 -2 10 -4z"/>
<path d="M185 130 c3 -5 8 -10 11 -10 2 0 4 5 4 10 0 6 -5 10 -11 10 -5 0 -7
-4 -4 -10z"/>
<path d="M260 120 c0 -5 5 -10 11 -10 5 0 7 5 4 10 -3 6 -8 10 -11 10 -2 0 -4
-4 -4 -10z"/>
<path d="M850 120 c0 -5 5 -10 11 -10 5 0 7 5 4 10 -3 6 -8 10 -11 10 -2 0 -4
-4 -4 -10z"/>
<path d="M1039 117 c5 -5 19 -7 32 -5 20 3 19 5 -9 9 -20 3 -29 2 -23 -4z"/>
<path d="M900 106 c0 -2 7 -7 16 -10 8 -3 12 -2 9 4 -6 10 -25 14 -25 6z"/>
</g>
</svg>
